<?xml version="1.0" standalone="no"?>
<!DOCTYPE svg PUBLIC "-//W3C//DTD SVG 20010904//EN"
 "http://www.w3.org/TR/2001/REC-SVG-20010904/DTD/svg10.dtd">
<svg version="1.0" xmlns="http://www.w3.org/2000/svg"
 width="225.000000pt" height="225.000000pt" viewBox="0 0 225.000000 225.000000"
 preserveAspectRatio="xMidYMid meet">

<g transform="translate(0.000000,225.000000) scale(0.100000,-0.100000)"
fill="#000000" stroke="none">
<path d="M760 2019 c-124 -8 -186 -18 -295 -44 -233 -55 -299 -85 -358 -161
-83 -105 -93 -169 -79 -521 l9 -231 43 -74 c23 -40 50 -85 58 -100 16 -26 16
-27 -57 -103 -71 -75 -72 -77 -66 -117 7 -39 71 -132 113 -165 36 -29 147 -6
204 42 16 14 36 25 44 25 20 0 18 -27 -3 -39 -10 -6 -12 -11 -6 -11 7 0 22
-18 33 -41 18 -35 32 -46 98 -75 115 -51 115 -52 189 -118 90 -81 115 -96 161
-96 46 0 54 8 76 76 24 74 79 92 192 60 27 -7 103 -19 169 -26 88 -9 127 -17
148 -32 40 -27 91 -34 120 -15 13 8 43 48 66 87 57 95 91 125 176 151 64 19
77 20 156 9 150 -20 208 11 275 147 45 93 22 174 -62 219 -47 24 -51 40 -28
102 14 38 18 91 22 284 6 370 -11 438 -146 554 -42 37 -100 77 -127 90 -91 42
-431 98 -690 114 -279 17 -318 18 -435 9z m660 -170 c52 -11 118 -32 145 -45
28 -14 41 -22 30 -18 -93 32 -246 66 -323 71 -51 3 -95 9 -97 13 -8 13 149 -1
245 -21z m287 -102 c43 -18 98 -46 123 -62 56 -36 140 -114 175 -165 l27 -39
-21 -43 c-11 -24 -44 -69 -74 -102 -47 -53 -54 -57 -66 -42 -26 31 -71 13 -71
-29 0 -27 -74 -100 -121 -119 -21 -9 -72 -23 -115 -32 -121 -24 -125 -36 -12
-31 54 2 95 0 92 -4 -3 -5 -50 -9 -105 -9 l-99 0 0 -34 c0 -31 4 -35 52 -55
28 -12 49 -24 46 -27 -4 -3 -25 4 -47 16 -31 15 -42 17 -45 8 -3 -7 -10 -31
-16 -53 -14 -46 -56 -115 -70 -115 -5 0 2 16 15 36 31 45 46 100 47 166 0 72
-22 91 -157 133 -123 39 -191 47 -119 15 23 -10 54 -35 70 -55 25 -33 28 -46
28 -109 0 -39 -6 -89 -13 -111 -13 -40 -76 -115 -95 -115 -6 0 6 14 27 31 20
17 37 36 37 42 0 7 -16 21 -35 31 -45 24 -39 31 9 11 34 -14 37 -14 44 2 4 10
7 53 7 95 0 62 -4 82 -21 105 -29 39 -136 93 -184 93 -64 0 -221 -66 -199 -84
2 -1 33 -17 69 -34 36 -18 97 -57 135 -88 84 -67 87 -70 57 -55 -30 16 -61 8
-94 -22 -34 -32 -84 -67 -95 -67 -4 0 4 8 18 18 45 30 119 94 119 103 0 13
-109 87 -156 105 -47 18 -49 18 -159 -45 l-40 -23 29 25 c16 14 47 34 68 44
21 10 38 21 38 25 0 4 -17 10 -37 13 -48 8 -160 41 -238 70 -33 12 -68 25 -78
28 -9 4 -22 18 -27 33 -9 23 -15 26 -44 21 -30 -5 -41 1 -110 62 -74 65 -142
146 -172 203 -8 15 -11 28 -7 28 5 0 15 -15 23 -32 20 -42 36 -45 54 -11 45
87 210 189 347 214 114 21 471 18 579 -5 47 -9 112 -21 145 -26 87 -12 206
-47 319 -92 171 -68 237 -108 315 -194 29 -31 53 -55 55 -53 31 38 76 117 76
135 0 16 -25 50 -77 104 -64 68 -92 88 -176 130 -54 28 -105 50 -112 50 -8 0
-17 5 -20 10 -9 15 -4 13 82 -23z m-1548 -496 c51 -51 115 -90 189 -111 23 -7
42 -17 42 -22 0 -12 -31 -2 -110 35 -72 33 -110 62 -153 113 -42 50 -23 41 32
-15z m1701 34 c17 -20 8 -50 -14 -50 -27 0 -43 29 -27 49 17 20 25 20 41 1z
m210 -5 c0 -26 -152 -161 -166 -148 -2 3 17 19 44 35 26 17 62 52 81 77 36 48
41 52 41 36z m-1652 -84 c-4 -30 -42 -28 -46 3 -2 13 2 27 9 32 18 11 41 -10
37 -35z m1301 -78 c-57 -61 -137 -146 -177 -187 -63 -64 -60 -60 19 29 177
200 242 270 252 270 5 0 -37 -50 -94 -112z m-1082 -127 c62 -57 111 -107 108
-111 -3 -5 29 -38 70 -75 41 -37 75 -73 74 -79 0 -7 -2 -6 -6 2 -12 30 -22 7
-22 -49 1 -55 3 -61 25 -70 36 -13 36 -13 34 29 -4 74 -3 77 19 58 18 -16 18
-19 3 -48 -12 -26 -13 -41 -3 -93 6 -34 11 -67 11 -74 0 -11 -57 -51 -73 -51
-4 0 -14 18 -23 40 -9 23 -19 38 -22 35 -3 -3 7 -32 23 -64 l28 -59 -22 -35
c-12 -20 -21 -51 -21 -75 l0 -40 -32 11 c-17 7 -69 46 -114 88 -66 61 -98 82
-162 108 -118 48 -117 46 -118 215 -2 161 -2 166 -33 225 -18 34 -22 56 -19
95 5 56 52 170 68 164 5 -1 75 -61 155 -132 81 -70 148 -126 151 -124 2 3 -66
67 -151 142 -85 76 -155 143 -155 149 0 6 21 -9 48 -34 26 -25 98 -91 159
-148z m1181 138 c-2 -6 -8 -10 -13 -10 -5 0 -11 4 -13 10 -2 6 4 11 13 11 9 0
15 -5 13 -11z m62 -9 c-20 -13 -33 -13 -25 0 3 6 14 10 23 10 15 0 15 -2 2
-10z m-80 -31 c0 -5 -4 -9 -10 -9 -5 0 -10 7 -10 16 0 8 5 12 10 9 6 -3 10
-10 10 -16z m-39 -2 c-1 -12 -15 -9 -19 4 -3 6 1 10 8 8 6 -3 11 -8 11 -12z
m65 -14 c-10 -10 -19 5 -10 18 6 11 8 11 12 0 2 -7 1 -15 -2 -18z m-1101 7
c48 -7 48 -7 10 -8 -22 0 -67 4 -100 8 l-60 7 50 1 c28 0 73 -3 100 -8z m1025
-31 c0 -5 -9 -9 -21 -9 -11 0 -18 -4 -15 -9 3 -5 16 -7 27 -4 15 4 20 2 17 -7
-2 -7 -15 -14 -28 -16 -14 -1 -31 -4 -39 -6 -7 -1 -16 3 -19 11 -3 10 0 12 12
8 13 -5 15 -2 10 20 -6 22 -4 25 9 20 9 -3 19 -2 22 4 7 11 25 3 25 -12z m30
6 c0 -8 -4 -15 -10 -15 -5 0 -10 7 -10 15 0 8 5 15 10 15 6 0 10 -7 10 -15z
m40 -5 c0 -6 -7 -13 -15 -16 -8 -4 -15 -12 -15 -20 0 -8 -4 -14 -10 -14 -5 0
-10 -7 -10 -15 0 -8 -5 -15 -11 -15 -6 0 -8 6 -5 13 3 6 9 20 12 30 4 9 10 17
15 17 5 0 9 7 9 15 0 8 7 15 15 15 8 0 15 -5 15 -10z m30 -15 c0 -8 -7 -15
-15 -15 -16 0 -20 12 -8 23 11 12 23 8 23 -8z m-190 -40 c0 -8 -4 -15 -10 -15
-5 0 -10 7 -10 15 0 8 5 15 10 15 6 0 10 -7 10 -15z m170 0 c0 -8 -4 -15 -10
-15 -5 0 -10 7 -10 15 0 8 5 15 10 15 6 0 10 -7 10 -15z m38 -6 c-2 -6 -8 -10
-13 -10 -5 0 -11 4 -13 10 -2 6 4 11 13 11 9 0 15 -5 13 -11z m-161 -25 c-9
-9 -28 6 -21 18 4 6 10 6 17 -1 6 -6 8 -13 4 -17z m33 17 c0 -6 -4 -13 -10
-16 -5 -3 -10 1 -10 9 0 9 5 16 10 16 6 0 10 -4 10 -9z m88 -14 c6 3 12 0 12
-6 0 -15 -18 -23 -25 -11 -9 15 -35 12 -35 -5 0 -10 -9 -14 -30 -11 -16 2 -30
-1 -30 -5 0 -5 -7 -9 -15 -9 -8 0 -15 -6 -15 -14 0 -8 -8 -22 -17 -32 -13 -13
-14 -19 -5 -22 17 -5 15 -22 -2 -22 -21 0 -25 -31 -8 -65 19 -37 17 -90 -3
-121 -12 -18 -12 -24 -3 -24 7 0 -1 -9 -19 -20 -35 -21 -53 -49 -63 -95 -8
-40 -25 -29 -24 16 0 25 13 53 41 92 l41 57 -2 107 c-2 74 -8 119 -18 143 -13
27 -14 38 -5 49 9 11 13 8 18 -16 3 -17 13 -40 21 -52 l16 -22 22 35 c12 20
24 35 28 35 28 -4 55 4 70 21 14 17 19 18 27 7 5 -8 16 -12 23 -10z m-178 -6
c0 -6 -4 -13 -10 -16 -5 -3 -10 1 -10 9 0 9 5 16 10 16 6 0 10 -4 10 -9z m30
-11 c0 -5 -4 -10 -10 -10 -5 0 -10 5 -10 10 0 6 5 10 10 10 6 0 10 -4 10 -10z
m190 -5 c0 -8 -4 -15 -10 -15 -5 0 -10 7 -10 15 0 8 5 15 10 15 6 0 10 -7 10
-15z m-66 -32 c-9 -36 -13 -40 -23 -24 -6 10 -11 9 -24 -3 -21 -21 -24 -20
-30 10 -4 24 -2 26 29 22 18 -2 32 -1 32 2 -1 13 3 20 12 20 6 0 8 -11 4 -27z
m-204 -76 c0 -10 -5 -27 -11 -38 -8 -15 -7 -34 1 -69 9 -38 9 -54 -1 -72 -17
-31 -91 -119 -97 -114 -8 9 11 48 40 82 28 31 30 39 25 87 -3 28 0 71 6 95 8
32 8 50 -1 74 -6 17 -9 35 -6 40 7 11 44 -60 44 -85z m60 83 c0 -5 -4 -10 -10
-10 -5 0 -10 5 -10 10 0 6 5 10 10 10 6 0 10 -4 10 -10z m201 0 c5 0 9 -7 9
-15 0 -19 -17 -19 -36 -1 -19 19 -18 30 2 22 9 -3 20 -6 25 -6z m-141 -27 c-1
-16 -30 -46 -37 -38 -5 4 -2 10 5 12 6 3 12 11 12 19 0 8 5 14 10 14 6 0 10
-3 10 -7z m-924 -45 l29 -33 -32 29 c-31 28 -38 36 -30 36 2 0 16 -15 33 -32z
m744 -29 c0 -15 -5 -40 -11 -56 -6 -15 -11 -46 -10 -69 1 -32 -6 -50 -28 -78
-17 -21 -35 -54 -42 -74 -15 -48 -29 -63 -29 -32 0 14 13 50 29 80 39 76 47
102 27 94 -12 -5 -10 6 9 50 15 34 25 76 25 104 1 43 2 46 15 28 8 -11 15 -32
15 -47z m247 -9 c1 -27 3 -68 5 -90 2 -31 -3 -45 -21 -62 -22 -21 -23 -21 -16
-3 16 41 17 86 1 125 -12 30 -13 46 -6 60 19 36 35 23 37 -30z m-54 -123 c-7
-29 -42 -67 -61 -67 -12 0 -10 5 6 23 30 32 37 79 19 125 -11 28 -12 43 -5 57
9 15 14 8 28 -49 10 -37 15 -77 13 -89z m-518 29 c27 -10 46 -11 58 -5 20 11
34 -11 21 -32 -5 -9 -2 -10 10 -6 17 7 29 -1 94 -54 19 -15 15 -46 -13 -95
-14 -25 -25 -60 -25 -79 0 -48 -9 -68 -25 -55 -9 8 -17 6 -28 -5 -19 -19 -47
-20 -47 -1 0 8 -7 17 -16 20 -14 5 -15 4 -5 -8 17 -20 6 -36 -25 -36 -28 0
-32 15 -6 29 9 6 12 11 6 11 -6 0 -17 -7 -24 -15 -7 -9 -15 -13 -18 -10 -14
14 34 45 69 45 48 0 66 19 74 78 3 26 10 55 16 64 12 24 11 31 -3 22 -8 -5 -9
-2 -5 9 3 10 2 17 -3 17 -6 0 -11 -6 -11 -12 -1 -7 -3 -20 -4 -28 -1 -8 -3
-34 -4 -57 -1 -47 -34 -94 -53 -75 -5 5 -8 52 -6 105 3 82 1 95 -13 94 -13 -1
-15 -13 -11 -78 5 -90 -2 -129 -24 -129 -8 0 -12 -4 -9 -10 3 -5 3 -10 -2 -10
-25 1 -32 22 -35 111 -2 67 -6 96 -15 96 -8 0 -10 -10 -5 -31 8 -35 8 -100 1
-134 -9 -38 -23 -45 -50 -24 -19 17 -24 31 -27 90 -3 48 -9 72 -18 76 -16 6
-19 -10 -4 -19 6 -3 10 -33 10 -66 0 -46 -3 -59 -15 -59 -8 0 -15 -5 -15 -11
0 -6 9 -8 20 -4 23 7 28 -13 5 -22 -25 -9 -51 24 -69 86 -31 111 -21 161 34
161 9 0 23 7 30 15 7 8 20 15 30 15 10 0 20 -7 24 -15 3 -8 11 -15 17 -15 9 0
8 4 0 14 -10 12 -8 15 11 18 13 2 29 -4 36 -12 12 -13 13 -13 8 4 -5 14 8 47
18 46 0 0 19 -7 41 -14z m544 -115 c-23 -29 -59 -42 -59 -21 0 11 72 62 78 55
2 -2 -6 -17 -19 -34z m-81 -17 c-12 -25 -68 -63 -68 -45 0 16 51 71 66 71 11
0 11 -5 2 -26z m-168 -91 c0 -15 5 -41 12 -59 6 -17 8 -40 4 -50 -7 -17 -10
-14 -26 16 -19 34 -26 100 -13 113 14 14 23 6 23 -20z m-40 -110 c10 -35 15
-63 12 -63 -18 1 -36 22 -48 56 -17 49 -17 76 -1 93 10 10 13 9 15 -6 2 -10
12 -46 22 -80z"/>
<path d="M635 1705 c-145 -16 -200 -31 -294 -80 -75 -40 -117 -76 -158 -137
l-25 -37 20 -28 c26 -36 62 -69 62 -56 0 47 145 179 229 209 25 9 67 25 93 35
26 10 57 19 69 19 13 0 57 9 98 19 42 11 117 25 166 31 138 18 150 23 70 31
-103 10 -195 8 -330 -6z"/>
<path d="M557 1548 c-26 -19 -27 -22 -12 -39 26 -27 44 -89 45 -146 0 -42 -4
-55 -20 -65 -41 -26 -6 -33 39 -9 14 8 37 10 58 6 36 -7 63 7 63 31 0 17 -56
19 -95 4 -25 -10 -26 -9 -21 17 16 82 17 107 6 152 -15 65 -28 75 -63 49z"/>
<path d="M801 1542 c-22 -25 -27 -37 -12 -28 14 9 41 -40 41 -73 0 -16 -5 -33
-10 -36 -6 -4 -8 -11 -4 -16 10 -18 -8 -70 -33 -93 -23 -22 -23 -23 -3 -21 11
1 26 7 32 13 15 15 52 15 98 2 29 -8 37 -7 48 7 30 41 -8 56 -87 33 -19 -5
-36 -8 -38 -7 -1 2 5 20 15 40 14 30 22 36 48 37 32 0 54 15 54 37 0 10 -10
12 -37 7 l-38 -6 0 45 0 44 50 -1 c44 -1 50 1 53 21 3 22 1 22 -77 20 -69 -2
-82 -5 -100 -25z"/>
<path d="M1075 1545 c-17 -13 -25 -24 -19 -25 30 -1 46 -106 18 -117 -10 -4
-12 -8 -5 -13 16 -10 -14 -76 -40 -91 -17 -9 -19 -13 -8 -20 8 -5 20 -2 30 7
16 14 24 14 79 0 47 -12 66 -13 76 -5 38 31 -12 57 -86 44 l-39 -7 21 39 c20
36 25 39 62 39 31 -1 41 3 44 17 3 14 -4 17 -35 17 l-38 0 4 46 c3 42 5 45 25
39 57 -18 74 -17 86 5 6 12 9 24 6 27 -2 3 -33 5 -68 5 -35 0 -68 4 -73 8 -7
6 -23 -1 -40 -15z"/>
<path d="M1313 1551 c-9 -14 -9 -27 1 -56 l13 -38 18 27 c14 21 16 34 9 53
-11 33 -26 38 -41 14z"/>
<path d="M1485 1495 c-60 -32 -61 -73 -3 -128 37 -35 45 -39 80 -34 42 6 48
-4 22 -41 -29 -41 -114 -19 -114 30 0 20 -46 62 -59 53 -17 -10 -13 -57 8 -91
20 -32 74 -64 111 -64 34 0 79 28 85 53 15 67 10 92 -19 115 -35 26 -44 28
-26 7 16 -20 7 -29 -20 -20 -50 16 -66 105 -19 105 28 0 75 -26 93 -52 9 -12
19 -19 23 -15 12 13 -70 86 -102 92 -18 4 -42 -1 -60 -10z"/>
<path d="M483 952 c-29 -14 -53 -31 -53 -37 1 -5 11 -23 24 -38 l23 -28 57 25
c32 14 55 30 51 36 -4 6 -19 4 -43 -6 -62 -27 -69 -26 -19 1 48 26 64 52 26
42 -17 -4 -19 -3 -10 6 13 13 15 27 4 26 -5 0 -32 -12 -60 -27z"/>
<path d="M602 781 c-69 -44 -79 -131 -21 -187 26 -25 38 -29 84 -29 46 0 58 4
84 29 39 37 49 87 28 132 -31 64 -116 91 -175 55z"/>
<path d="M830 686 c0 -37 4 -66 10 -66 6 0 10 26 10 59 0 33 -4 63 -10 66 -6
4 -10 -18 -10 -59z"/>
<path d="M487 613 c-4 -6 3 -24 14 -39 l21 -29 -27 29 c-42 45 -48 17 -8 -36
19 -27 38 -48 41 -48 4 0 17 9 30 18 l24 18 -44 49 c-26 28 -47 44 -51 38z"/>
<path d="M426 562 c-7 -12 70 -96 82 -88 8 5 0 22 -25 52 -37 44 -48 51 -57
36z"/>
<path d="M747 449 c-32 -17 -55 -34 -52 -39 6 -9 125 39 125 51 0 18 -18 15
-73 -12z"/>
<path d="M762 414 c-29 -13 -50 -29 -47 -34 4 -6 18 -4 36 6 17 8 33 13 35 11
3 -2 -9 -10 -26 -17 -16 -7 -30 -16 -30 -20 0 -19 17 -17 71 11 54 27 58 31
47 49 -16 25 -20 24 -86 -6z"/>
<path d="M960 620 c0 -5 7 -7 15 -4 8 4 15 8 15 10 0 2 -7 4 -15 4 -8 0 -15
-4 -15 -10z"/>
</g>
</svg>
